<?xml version="1.0" encoding="UTF-8"?>
<!DOCTYPE svg PUBLIC "-//W3C//DTD SVG 1.1//EN" "http://www.w3.org/Graphics/SVG/1.1/DTD/svg11.dtd">
<!-- Creator: CorelDRAW -->
<svg xmlns="http://www.w3.org/2000/svg" xml:space="preserve" width="210mm" height="297mm" version="1.1" style="shape-rendering:geometricPrecision; text-rendering:geometricPrecision; image-rendering:optimizeQuality; fill-rule:evenodd; clip-rule:evenodd"
viewBox="0 0 21000 29700"
 xmlns:xlink="http://www.w3.org/1999/xlink"
 xmlns:xodm="http://www.corel.com/coreldraw/odm/2003">
 <defs>
  <style type="text/css">
   <![CDATA[
    .str0 {stroke:#F06E1B;stroke-width:7.62;stroke-miterlimit:22.9256}
    .fil0 {fill:none;fill-rule:nonzero}
    .fil2 {fill:#E52427}
    .fil1 {fill:#FBB80F}
   ]]>
  </style>
 </defs>
 <g id="Capa_x0020_1">
  <metadata id="CorelCorpID_0Corel-Layer"/>
  <g id="_399202172_712271214344632_1264361880524912318_n.eps">
   <g>
    <path class="fil0 str0" d="M48315.28 16087.93c0,-701.42 -568.58,-1270 -1270,-1270 -701.42,0 -1270,568.58 -1270,1270 0,701.42 568.58,1270 1270,1270 701.42,0 1270,-568.58 1270,-1270"/>
   </g>
   <g>
    <path class="fil0 str0" d="M47059.29 15207.16c0.48,-8.67 1.21,-17.29 2.28,-25.8 2.69,-21.68 3.72,-47.77 3.17,-78.25 -1.18,-63.95 -17.18,-157.68 -97.82,-164.06 -52.12,-4.13 -104.64,19.94 -140.76,57.06 -22.89,23.55 -40.88,51.08 -53.89,82.52 -31.66,76.56 -37.97,162.59 -32.66,247.51 3.87,61.74 21.12,124.69 48.25,179.2 0.92,1.88 0.15,4.17 -1.73,5.09 -69.22,34.17 -132.77,79.47 -190.64,135.9 -85.95,83.78 -156.13,179.79 -210.53,288.05 -10.69,21.23 -20.57,44.63 -29.64,70.25 -0.51,1.4 0.56,2.88 2.07,2.84l519.26 -17.69c1.81,-0.08 3.32,1.4 3.24,3.2l-1.95 70.92c-0.07,2.39 1.88,4.31 4.28,4.24l231.54 -7.96c2.92,-0.12 4.43,-1.59 4.43,-4.5l1.21 -74.53c0,-0.85 0.67,-1.51 1.51,-1.55l576.55 -19.72c1.73,-0.07 2.76,-1.91 1.99,-3.42 -98.75,-192.52 -245.04,-337.59 -438.81,-435.27 -1.03,-0.51 -1.17,-1.95 -0.25,-2.69 50.57,-39.07 73.93,-110.43 61.62,-172.94 -10.76,-54.55 -65.97,-52.01 -107.84,-38.59 -2.47,0.77 -3.32,-0.07 -2.55,-2.54 16.41,-53.04 16.15,-120.53 -16.88,-165.61 -5.82,-7.96 -14.48,-14.82 -26.02,-20.56 -54.4,-27.13 -93.47,52.33 -107.44,89.3 -1.55,4.09 -2.22,3.98 -1.99,-0.4"/>
   </g>
   <g>
    <path class="fil0 str0" d="M46531.32 16984.04c24.22,11.31 48.18,21.01 71.84,29 27.31,9.26 55.95,17.7 85.92,25.29 19.2,4.86 44.34,10.03 75.37,15.48 94.92,16.73 192.04,22.67 289.64,21.12 114.92,-1.88 221.78,-11.28 320.56,-28.27 46.07,-7.92 98.45,-22.78 157.16,-44.64 26.47,-9.84 54.41,-24.36 79.54,-38.25 33.91,-18.69 67.79,-44.05 95.32,-70.59 75.16,-72.5 118.43,-161.88 129.85,-268.22 2.1,-19.53 2.62,-43.86 1.55,-72.94 -0.92,-25.62 -1.92,-50.17 -2.98,-73.65 -3.17,-69.14 -12.57,-141.64 -28.2,-217.54 -7.19,-34.83 -17.22,-72.64 -30.04,-113.37 -0.78,-2.47 -0.96,-5.05 -0.55,-7.74 0.18,-1.29 -0.11,-1.4 -0.89,-0.37 -1.29,1.73 -2.03,3.61 -2.03,5.64 -0.95,31.7 -1.73,65.64 -2.28,101.88 -0.55,35.16 -8.85,67.34 -24.88,96.56 -32.95,60.12 -97.01,102.21 -166.42,105.05 -100.1,4.09 -194.54,7.26 -283.29,9.59 -11.17,0.29 -23.74,0.11 -34.76,-2.07 -56.02,-11.09 -97.75,-41.35 -125.21,-90.86 -16,-28.89 -23.55,-60.55 -22.63,-94.94 0.77,-28.94 1.36,-57.36 1.81,-85.26 0,-1.32 -1.07,-2.39 -2.4,-2.36l-234.68 7.82c-2.21,0.07 -3.91,1.95 -3.79,4.16 1.32,25.25 1.1,51.02 -0.7,77.37 -2.47,36.6 -14.12,68.96 -34.95,97.01 -6.85,9.25 -14.78,17.99 -23.73,26.13 -8.48,7.71 -17.11,14.82 -25.92,21.31 -26.39,19.42 -57.9,29.78 -94.54,31.07 -77.44,2.73 -153.73,5.46 -228.82,8.18 -32.8,1.22 -55.87,0.48 -69.18,-2.21 -51.56,-10.43 -97.97,-45.04 -118.72,-94.95 -3.39,-8.14 -6.78,-16.1 -10.21,-23.88 -1,-2.18 -1.66,-2.1 -1.99,0.26 -8.18,55.87 -12.79,114.74 -13.82,176.59 -0.85,49.53 2.87,99.33 11.13,149.38 4.31,26.25 10.36,50.46 18.06,72.62 40.36,115.8 136.78,197.71 249.86,250.6"/>
   </g>
   <g>
    <path class="fil0 str0" d="M46932.68 16361.61c-56.73,9.95 -100.48,41.24 -131.29,93.84 -1.18,1.99 -3.36,3.2 -5.64,3.17 -11.06,-0.11 -21.6,0.26 -31.59,1.18 -42.39,3.83 -78.62,28.49 -86.66,72.5 -0.29,1.55 0.89,2.95 2.47,2.95 203.09,0.22 405.19,0.25 606.25,0.07 0.89,0 1.74,-0.18 2.55,-0.52 0.74,-0.33 1.18,-1.1 1.03,-1.91 -7.48,-43.72 -42.39,-68.08 -85.59,-72.8 -11.39,-1.25 -22.33,-1.73 -32.84,-1.4 -2.17,0.07 -4.2,-1.03 -5.3,-2.91 -31.08,-53.48 -75.82,-85.03 -134.32,-94.65 -33.21,-5.42 -66.23,-5.27 -99.07,0.48"/>
   </g>
   <g>
    <path class="fil0 str0" d="M47026.33 16750.54c103.87,-25.66 187.58,-94.32 255.55,-176.33 1.36,-1.63 0.18,-4.09 -1.92,-4.09l-588.01 -0.15c-2.13,0 -3.42,2.39 -2.21,4.16 43.64,64.03 100.77,124.4 170.14,159.16 52.01,26.06 107.52,31.81 166.45,17.25"/>
   </g>
   <path class="fil1" d="M48315.28 16087.93c0,701.42 -568.58,1270 -1270,1270 -701.42,0 -1270,-568.58 -1270,-1270 0,-701.42 568.58,-1270 1270,-1270 701.42,0 1270,568.58 1270,1270zm-1255.99 -880.77c0.48,-8.67 1.21,-17.29 2.28,-25.8 2.69,-21.68 3.72,-47.77 3.17,-78.25 -1.18,-63.95 -17.18,-157.68 -97.82,-164.06 -52.12,-4.13 -104.64,19.94 -140.76,57.06 -22.89,23.55 -40.88,51.08 -53.89,82.52 -31.66,76.56 -37.97,162.59 -32.66,247.51 3.87,61.74 21.12,124.69 48.25,179.2 0.92,1.88 0.15,4.17 -1.73,5.09 -69.22,34.17 -132.77,79.47 -190.64,135.9 -85.95,83.78 -156.13,179.79 -210.53,288.05 -10.69,21.23 -20.57,44.63 -29.64,70.25 -0.51,1.4 0.56,2.88 2.07,2.84l519.26 -17.69c1.81,-0.08 3.32,1.4 3.24,3.2l-1.95 70.92c-0.07,2.39 1.88,4.31 4.28,4.24l231.54 -7.96c2.92,-0.12 4.39,-1.59 4.43,-4.5l1.21 -74.53c0,-0.85 0.67,-1.51 1.51,-1.55l576.55 -19.72c1.73,-0.07 2.76,-1.91 1.99,-3.42 -98.75,-192.52 -245.04,-337.59 -438.81,-435.27 -1.03,-0.51 -1.17,-1.95 -0.25,-2.69 50.57,-39.07 73.93,-110.43 61.62,-172.94 -10.76,-54.55 -65.97,-52.01 -107.84,-38.59 -2.47,0.77 -3.32,-0.07 -2.55,-2.54 16.41,-53.04 16.15,-120.53 -16.88,-165.61 -5.82,-7.96 -14.48,-14.82 -26.02,-20.56 -54.4,-27.13 -93.47,52.33 -107.44,89.3 -1.55,4.09 -2.22,3.98 -1.99,-0.4zm-527.97 1776.88c24.22,11.31 48.18,21.01 71.84,29 27.31,9.26 55.95,17.7 85.92,25.29 19.2,4.86 44.34,10.03 75.37,15.48 94.92,16.73 192.04,22.67 289.64,21.12 114.92,-1.88 221.78,-11.28 320.56,-28.27 46.07,-7.92 98.45,-22.78 157.16,-44.64 26.47,-9.84 54.41,-24.36 79.54,-38.25 33.91,-18.69 67.79,-44.05 95.32,-70.59 75.16,-72.5 118.43,-161.88 129.85,-268.22 2.1,-19.53 2.62,-43.86 1.55,-72.94 -0.92,-25.62 -1.92,-50.17 -2.98,-73.65 -3.17,-69.14 -12.57,-141.64 -28.2,-217.54 -7.19,-34.83 -17.22,-72.64 -30.04,-113.37 -0.78,-2.47 -0.96,-5.05 -0.55,-7.74 0.18,-1.29 -0.11,-1.4 -0.89,-0.37 -1.29,1.73 -1.99,3.61 -2.03,5.64 -0.95,31.7 -1.73,65.64 -2.28,101.88 -0.55,35.16 -8.85,67.34 -24.88,96.56 -32.95,60.12 -97.01,102.21 -166.42,105.05 -100.1,4.09 -194.54,7.26 -283.29,9.59 -11.17,0.29 -23.74,0.11 -34.76,-2.07 -56.02,-11.09 -97.75,-41.35 -125.21,-90.86 -16,-28.89 -23.55,-60.55 -22.63,-94.94 0.77,-28.94 1.36,-57.36 1.81,-85.26 0.03,-1.32 -1.07,-2.39 -2.4,-2.36l-234.68 7.82c-2.21,0.07 -3.91,1.95 -3.79,4.16 1.32,25.25 1.1,51.02 -0.7,77.37 -2.47,36.6 -14.12,68.96 -34.95,97.01 -6.85,9.25 -14.78,17.99 -23.73,26.13 -8.48,7.71 -17.11,14.82 -25.92,21.31 -26.39,19.42 -57.9,29.78 -94.54,31.07 -77.44,2.73 -153.73,5.46 -228.82,8.18 -32.8,1.22 -55.87,0.48 -69.18,-2.21 -51.56,-10.43 -97.97,-45.04 -118.72,-94.95 -3.39,-8.14 -6.78,-16.1 -10.21,-23.88 -1,-2.18 -1.66,-2.1 -1.99,0.26 -8.18,55.87 -12.79,114.74 -13.82,176.59 -0.85,49.53 2.87,99.33 11.13,149.38 4.31,26.25 10.36,50.46 18.06,72.62 40.36,115.8 136.78,197.71 249.86,250.6z"/>
   <path class="fil2" d="M47059.29 15207.16c-0.22,4.38 0.44,4.49 1.99,0.4 13.97,-36.97 53.04,-116.43 107.44,-89.3 11.54,5.74 20.2,12.6 26.02,20.56 33.03,45.08 33.28,112.57 16.88,165.61 -0.77,2.47 0.08,3.31 2.55,2.54 41.87,-13.42 97.08,-15.96 107.84,38.59 12.32,62.51 -11.05,133.87 -61.62,172.94 -0.92,0.74 -0.78,2.18 0.25,2.69 193.77,97.68 340.06,242.75 438.81,435.27 0.77,1.51 -0.26,3.35 -1.99,3.42l-576.55 19.72c-0.84,0.04 -1.51,0.7 -1.51,1.55l-1.21 74.53c-0.04,2.91 -1.51,4.39 -4.43,4.5l-231.54 7.96c-2.4,0.07 -4.35,-1.84 -4.28,-4.24l1.95 -70.92c0.08,-1.8 -1.43,-3.28 -3.24,-3.2l-519.26 17.69c-1.51,0.03 -2.58,-1.44 -2.07,-2.84 9.07,-25.62 18.95,-49.02 29.64,-70.25 54.4,-108.26 124.58,-204.27 210.53,-288.05 57.87,-56.43 121.42,-101.73 190.64,-135.9 1.88,-0.92 2.65,-3.21 1.73,-5.09 -27.13,-54.51 -44.38,-117.46 -48.25,-179.2 -5.31,-84.93 1,-170.95 32.66,-247.51 13.01,-31.44 31,-58.97 53.89,-82.52 36.12,-37.12 88.64,-61.19 140.76,-57.06 80.64,6.37 96.64,100.11 97.82,164.06 0.55,30.48 -0.48,56.57 -3.17,78.25 -1.07,8.51 -1.8,17.14 -2.28,25.8z"/>
   <path class="fil2" d="M46531.32 16984.04c-113.08,-52.9 -209.5,-134.8 -249.86,-250.6 -7.7,-22.16 -13.75,-46.37 -18.06,-72.62 -8.26,-50.05 -11.98,-99.85 -11.13,-149.38 1.03,-61.85 5.64,-120.72 13.82,-176.59 0.33,-2.36 0.99,-2.44 1.99,-0.26 3.43,7.78 6.82,15.74 10.21,23.88 20.75,49.91 67.16,84.52 118.72,94.95 13.31,2.69 36.38,3.43 69.18,2.21 75.09,-2.73 151.38,-5.45 228.82,-8.18 36.64,-1.29 68.15,-11.65 94.54,-31.07 8.81,-6.49 17.44,-13.6 25.92,-21.31 8.95,-8.14 16.88,-16.88 23.73,-26.13 20.83,-28.05 32.48,-60.41 34.95,-97.01 1.8,-26.35 2.02,-52.12 0.7,-77.37 -0.11,-2.21 1.58,-4.09 3.79,-4.16l234.68 -7.82c1.33,-0.03 2.43,1.04 2.4,2.36 -0.45,27.9 -1.04,56.32 -1.81,85.26 -0.92,34.39 6.63,66.05 22.63,94.94 27.46,49.51 69.19,79.77 125.21,90.86 11.02,2.18 23.59,2.36 34.76,2.07 88.75,-2.33 183.18,-5.5 283.29,-9.59 69.41,-2.84 133.47,-44.93 166.42,-105.05 16.03,-29.22 24.33,-61.4 24.88,-96.56 0.55,-36.24 1.32,-70.18 2.28,-101.88 0.04,-2.03 0.74,-3.91 2.03,-5.64 0.78,-1.03 1.07,-0.92 0.89,0.37 -0.41,2.69 -0.23,5.27 0.55,7.74 12.83,40.73 22.85,78.54 30.04,113.37 15.63,75.9 25.03,148.4 28.2,217.54 1.06,23.48 2.06,48.03 2.98,73.65 1.07,29.08 0.55,53.41 -1.55,72.94 -11.42,106.34 -54.7,195.72 -129.85,268.22 -27.53,26.54 -61.41,51.9 -95.32,70.59 -25.13,13.89 -53.07,28.41 -79.54,38.25 -58.71,21.86 -111.09,36.72 -157.16,44.64 -98.78,16.99 -205.64,26.39 -320.56,28.27 -97.6,1.55 -194.73,-4.39 -289.64,-21.12 -31.03,-5.45 -56.17,-10.62 -75.37,-15.48 -29.97,-7.59 -58.61,-16.03 -85.92,-25.29 -23.66,-7.99 -47.62,-17.69 -71.84,-29zm401.36 -622.43c-56.73,9.95 -100.48,41.24 -131.29,93.84 -1.18,1.99 -3.36,3.2 -5.64,3.17 -11.06,-0.11 -21.6,0.26 -31.59,1.18 -42.39,3.83 -78.62,28.49 -86.66,72.5 -0.29,1.55 0.89,2.95 2.47,2.95 203.09,0.22 405.19,0.25 606.25,0.07 0.89,0 1.74,-0.18 2.55,-0.52 0.74,-0.33 1.18,-1.1 1.03,-1.91 -7.48,-43.72 -42.39,-68.08 -85.59,-72.8 -11.39,-1.25 -22.33,-1.73 -32.84,-1.4 -2.17,0.07 -4.2,-1.03 -5.3,-2.91 -31.08,-53.48 -75.82,-85.03 -134.32,-94.65 -33.21,-5.42 -66.23,-5.27 -99.07,0.48zm93.65 388.93c103.87,-25.66 187.58,-94.32 255.55,-176.33 1.36,-1.63 0.18,-4.09 -1.92,-4.09l-588.01 -0.15c-2.13,0 -3.42,2.39 -2.21,4.16 43.64,64.03 100.77,124.4 170.14,159.16 52.01,26.06 107.52,31.81 166.45,17.25z"/>
   <path class="fil1" d="M46932.68 16361.61c32.84,-5.75 65.86,-5.9 99.07,-0.48 58.5,9.62 103.24,41.17 134.32,94.65 1.1,1.88 3.13,2.99 5.3,2.91 10.51,-0.33 21.45,0.15 32.84,1.4 43.2,4.72 78.11,29.08 85.59,72.8 0.15,0.81 -0.3,1.58 -1.03,1.91 -0.81,0.34 -1.66,0.52 -2.55,0.52 -201.06,0.18 -403.16,0.15 -606.25,-0.07 -1.58,0 -2.76,-1.4 -2.47,-2.95 8.04,-44.01 44.27,-68.67 86.66,-72.5 9.99,-0.92 20.53,-1.29 31.59,-1.18 2.28,0.03 4.46,-1.18 5.64,-3.17 30.81,-52.6 74.56,-83.89 131.29,-93.84z"/>
   <path class="fil1" d="M47281.88 16574.21c-67.97,82.01 -151.68,150.67 -255.55,176.33 -58.93,14.56 -114.44,8.81 -166.45,-17.25 -69.37,-34.76 -126.5,-95.13 -170.14,-159.16 -1.21,-1.77 0.08,-4.16 2.21,-4.16l588.01 0.14c2.1,0 3.28,2.47 1.92,4.1z"/>
  </g>
 </g>
</svg>
